<?xml version="1.0"?>
<svg width="100" height="100" xmlns="http://www.w3.org/2000/svg" xmlns:svg="http://www.w3.org/2000/svg">
 <g>
  <title>Layer 1</title>
  <path d="m81.68,41.721001l-23.401001,0l0,-23.401001c0,-0.690001 -0.559998,-1.25 -1.25,-1.25l-14.059998,0c-0.690002,0 -1.25,0.559999 -1.25,1.25l0,23.401001l-23.399002,0c-0.690001,0 -1.25,0.559998 -1.25,1.25l0,14.057999c0,0.690002 0.559999,1.25 1.25,1.25l23.399002,0l0,23.401001c0,0.690002 0.559998,1.25 1.25,1.25l14.059998,0c0.690002,0 1.25,-0.559998 1.25,-1.25l0,-23.402l23.401001,0c0.690002,0 1.25,-0.560001 1.25,-1.25l0,-14.056999c0,-0.691002 -0.558998,-1.25 -1.25,-1.25zm-1.25,14.056999l-23.401001,0c-0.689999,0 -1.25,0.560001 -1.25,1.25l0,23.402l-11.559998,0l0,-23.402c0,-0.689999 -0.560001,-1.25 -1.25,-1.25l-23.399002,0l0,-11.556999l23.399002,0c0.689999,0 1.25,-0.560001 1.25,-1.25l0,-23.401001l11.559998,0l0,23.401001c0,0.689999 0.560001,1.25 1.25,1.25l23.401001,0l0,11.556999z" id="svg_1"/>
 </g>
</svg>